<svg xmlns="http://www.w3.org/2000/svg" viewBox="0 0 178.562 21.1"><path d="M9.085 3.3V1.9A4.806 4.806 0 0 0 5.143.1a4.389 4.389 0 0 0-3 1A3.54 3.54 0 0 0 .928 4v.2a3.821 3.821 0 0 0 .7 2.2 5.331 5.331 0 0 0 1.755 1.7q1.053.75 2.295 1.5t2.3 1.5a6.916 6.916 0 0 1 1.755 1.8 4.8 4.8 0 0 1 .7 2.5v.1A4.416 4.416 0 0 1 8.948 19a5 5 0 0 1-3.51 1.3 5.36 5.36 0 0 1-3.388-1 5.439 5.439 0 0 1-2.066-2.5v1.5a5.87 5.87 0 0 0 5.238 2.8 6.369 6.369 0 0 0 4.307-1.5 5.174 5.174 0 0 0 1.741-4.1v-.3a5.93 5.93 0 0 0-.526-2.4 6.13 6.13 0 0 0-1.35-1.8c-.55-.5-1.162-.9-1.836-1.4L5.532 8.4A21.508 21.508 0 0 1 3.71 7.2a3.912 3.912 0 0 1-1.89-3.1V4a2.96 2.96 0 0 1 .932-2.3A3.517 3.517 0 0 1 5.006.9a4.786 4.786 0 0 1 2.389.6 5.807 5.807 0 0 1 1.688 1.8zM33.898.5l-9.126 18.6-9.1-18.6h-1.3v20.2h.81V1.5l9.5 19.6L34.24 1.5v19.2h.891V.5h-1.242zm4.076 20.2h.837l3.78-7.7h10.827l3.834 7.7h.945L48.072 0zm15.12-8.5H42.942l5.049-10.4zm7.938 8.5h.864v-6.4l6.129 6.4h1.161l-6.966-7.3h.186a6.258 6.258 0 0 0 4.347-2 5.771 5.771 0 0 0 2.025-4.5 6.13 6.13 0 0 0-1.984-4.5 6.321 6.321 0 0 0-4.6-1.9h-1.161v20.2zm.864-19.5h.351a5.861 5.861 0 0 1 5.67 5.7 5.768 5.768 0 0 1-5.535 5.7h-.486V1.2zm8.64-.7v.7h4.67v19.5h.891V1.2h4.617V.5H70.536zm36.963 11.7H93.621V.5h-.891v20.2h.891V13h13.878v7.7h.891V.5h-.891v11.7zm3.725 8.5h.837l3.78-7.7h10.827l3.834 7.7h.945L121.322 0zm15.12-8.5h-10.152l5.049-10.4zm22.842 6.3L134.286.2v20.5h.783v-18l14.9 18.3V.5h-.783v18zm4.833 2.2h.864a9.5 9.5 0 0 0 7.33-3 9.843 9.843 0 0 0 2.768-7.1 10.22 10.22 0 0 0-2.781-7.2 9.436 9.436 0 0 0-7.317-2.9h-.864v20.2zM161.565 4a9.758 9.758 0 0 1 0 13.1 8.206 8.206 0 0 1-6.466 2.8h-.216V1.3h.216a8.459 8.459 0 0 1 6.466 2.7zm14.81-.7V1.9a4.808 4.808 0 0 0-3.942-1.8 4.389 4.389 0 0 0-3 1 3.538 3.538 0 0 0-1.216 2.9v.2a3.815 3.815 0 0 0 .7 2.2 5.328 5.328 0 0 0 1.754 1.7q1.055.75 2.3 1.5t2.3 1.5a6.932 6.932 0 0 1 1.755 1.8 4.8 4.8 0 0 1 .7 2.5v.1a4.42 4.42 0 0 1-1.485 3.5 5 5 0 0 1-3.51 1.3 5.365 5.365 0 0 1-3.389-1 5.437 5.437 0 0 1-2.065-2.5v1.5a5.869 5.869 0 0 0 5.237 2.8 6.369 6.369 0 0 0 4.307-1.5 5.175 5.175 0 0 0 1.742-4.1v-.3a5.932 5.932 0 0 0-.527-2.4 6.112 6.112 0 0 0-1.35-1.8c-.549-.5-1.161-.9-1.836-1.4l-2.025-1.2a21.191 21.191 0 0 1-1.822-1.2 3.909 3.909 0 0 1-1.89-3.1V4a2.96 2.96 0 0 1 .931-2.3 3.518 3.518 0 0 1 2.255-.8 4.789 4.789 0 0 1 2.389.6 5.819 5.819 0 0 1 1.688 1.8z" fill="#fff" fill-rule="evenodd"/></svg>