<?xml version="1.0" standalone="no"?>
<!DOCTYPE svg PUBLIC "-//W3C//DTD SVG 20010904//EN"
 "http://www.w3.org/TR/2001/REC-SVG-20010904/DTD/svg10.dtd">
<svg version="1.0" xmlns="http://www.w3.org/2000/svg"
 width="1313.000000pt" height="1313.000000pt" viewBox="0 0 1313.000000 1313.000000"
 preserveAspectRatio="xMidYMid meet">
<metadata>
Created by potrace 1.11, written by Peter Selinger 2001-2013
</metadata>
<g transform="translate(0.000000,1313.000000) scale(0.100000,-0.100000)"
fill="#000000" stroke="none">
<path d="M6255 13124 c-387 -25 -677 -62 -1010 -129 -1693 -342 -3195 -1358
-4158 -2813 -1448 -2187 -1448 -5047 0 -7234 882 -1333 2219 -2301 3751 -2718
1200 -326 2492 -303 3677 65 1440 448 2691 1388 3528 2653 1448 2187 1448
5047 0 7234 -963 1455 -2465 2471 -4158 2813 -448 91 -779 125 -1250 129 -176
2 -347 2 -380 0z m-1886 -3969 c290 -56 525 -190 713 -408 l58 -68 0 -182 0
-183 -83 -20 -84 -21 -43 71 c-52 84 -161 200 -250 268 -85 65 -244 142 -350
169 -191 49 -425 35 -575 -35 -230 -108 -345 -281 -362 -546 -19 -319 132
-557 522 -822 111 -75 172 -113 475 -293 538 -319 855 -574 1019 -820 162
-242 229 -431 252 -712 11 -139 -1 -375 -26 -494 -71 -340 -248 -608 -543
-819 -418 -298 -1050 -375 -1559 -189 -261 94 -533 306 -700 543 l-63 89 0
188 c0 187 0 189 23 194 12 3 50 11 85 19 l63 14 36 -71 c150 -300 424 -541
725 -642 147 -49 301 -68 503 -62 153 4 195 8 280 31 197 52 410 178 543 320
77 83 113 136 162 238 78 162 112 387 91 591 -24 240 -100 413 -275 626 -121
147 -259 246 -936 676 -537 341 -568 363 -701 495 -178 178 -283 349 -339 555
-31 115 -39 355 -16 494 34 204 106 358 227 486 173 182 417 301 689 335 103
12 337 4 439 -15z m2389 -108 l42 -43 0 -1367 0 -1367 1580 0 1580 0 0 1365 0
1365 41 45 42 45 116 0 117 0 42 -43 42 -43 0 -2434 0 -2434 -47 -48 -47 -48
-105 0 -105 0 -48 47 -48 47 0 883 0 883 -1580 0 -1580 0 0 -888 0 -888 -43
-42 -43 -42 -109 0 -109 0 -43 42 -43 42 0 2440 0 2440 42 43 42 43 111 0 111
0 42 -43z"/>
</g>
</svg>
